<svg width="22" height="22" viewBox="0 0 22 22" fill="none" xmlns="http://www.w3.org/2000/svg">
<path d="M15.1175 10.9997C15.1175 7.26882 13.9764 3.75626 12.0217 0.769597L10.7715 1.58324C12.5873 4.35161 13.6291 7.58634 13.6291 10.9997H15.1175ZM11.9125 21.3389C13.8772 18.4515 15.1175 14.8298 15.1175 10.9997H13.6291C13.6291 14.5122 12.488 17.8363 10.6822 20.5054L11.9125 21.3389ZM1.07719 11.7439H20.9222V10.2555H1.07719V11.7439ZM8.27099 10.9997C8.27099 7.58634 9.31285 4.35161 11.1287 1.58324L9.87843 0.769597C7.9237 3.75626 6.78262 7.26882 6.78262 10.9997H8.27099ZM11.218 20.5054C9.41208 17.8363 8.27099 14.5122 8.27099 10.9997H6.78262C6.78262 14.8298 8.02293 18.4515 9.98758 21.3389L11.218 20.5054ZM0.333008 10.9997C0.333008 16.9631 5.03626 21.6663 10.9997 21.6663V20.178C5.84991 20.178 1.82138 16.1494 1.82138 10.9997H0.333008ZM10.9997 0.333008C5.13549 0.333008 0.333008 5.13549 0.333008 10.9997H1.82138C1.82138 5.94913 5.94913 1.82138 10.9997 1.82138V0.333008ZM21.6663 10.9997C21.6663 5.13549 16.8639 0.333008 10.9997 0.333008V1.82138C16.0502 1.82138 20.178 5.94913 20.178 10.9997H21.6663ZM10.9997 21.6663C16.8639 21.6663 21.6663 16.8639 21.6663 10.9997H20.178C20.178 16.0502 16.0502 20.178 10.9997 20.178V21.6663ZM12.0217 0.769597C11.7935 0.42231 11.337 0.333008 10.9898 0.551302C10.6425 0.779519 10.5532 1.23595 10.7715 1.58324L12.0217 0.769597ZM10.6822 20.5054C10.4539 20.8428 10.5432 21.3091 10.8806 21.5373C11.218 21.7656 11.6843 21.6763 11.9125 21.3389L10.6822 20.5054ZM11.1287 1.58324C11.347 1.23595 11.2577 0.779519 10.9104 0.551302C10.5631 0.333008 10.1067 0.42231 9.87843 0.769597L11.1287 1.58324ZM9.98758 21.3389C10.2158 21.6763 10.6822 21.7656 11.0195 21.5373C11.3569 21.3091 11.4462 20.8428 11.218 20.5054L9.98758 21.3389Z" fill="#005AFF"/>
</svg>