<svg width="22" height="22" viewBox="0 0 22 22" fill="none" xmlns="http://www.w3.org/2000/svg">
<path d="M6.90197 14.1451L0.551582 20.3963L1.59344 21.448L7.94383 15.1969L6.90197 14.1451ZM4.30228 9.01518C4.30228 13.7879 8.10259 17.6973 12.9844 17.6973V16.209C8.93608 16.209 5.79065 12.9742 5.79065 9.01518H4.30228ZM12.9844 0.333008C8.21174 0.333008 4.30228 4.24247 4.30228 9.01518H5.79065C5.79065 5.05611 9.02538 1.82138 12.9844 1.82138V0.333008ZM21.6666 9.01518C21.6666 4.24247 17.7572 0.333008 12.9844 0.333008V1.82138C16.9435 1.82138 20.1782 5.05611 20.1782 9.01518H21.6666ZM12.9844 17.6973C17.7572 17.6973 21.6666 13.7879 21.6666 9.01518H20.1782C20.1782 12.9742 16.9435 16.209 12.9844 16.209V17.6973ZM0.551582 20.3963C0.26383 20.684 0.253907 21.1504 0.551582 21.448C0.839334 21.7358 1.31561 21.7358 1.60336 21.448L0.561504 20.3963H0.551582ZM7.94383 15.1969C8.2415 14.9091 8.2415 14.4428 7.94383 14.1451C7.65608 13.8573 7.1798 13.8474 6.89205 14.1451L7.93391 15.1969H7.94383Z" fill="#005AFF"/>
</svg>